<?xml version="1.0" encoding="UTF-8" standalone="no"?>
<svg
   xmlns:svg="http://www.w3.org/2000/svg"
   xmlns="http://www.w3.org/2000/svg"
   version="1.1">
  <symbol
     id="controller"
     viewBox="0 0 115.7062 100">
    <path
       d="m 15.042896,82.56961 c 0.558291,0.966986 0.709582,2.116147 0.42059,3.19468 -0.288992,1.078533 -0.994593,1.998091 -1.96158,2.55638 -0.966985,0.558289 -2.116145,0.709579 -3.194677,0.420588 C 9.228697,88.452266 8.3091403,87.746665 7.750851,86.77968 7.1925601,85.812694 7.0412693,84.663533 7.3302611,83.585 7.6192528,82.506467 8.3248543,81.586909 9.291841,81.02862 c 0.966985,-0.558289 2.116145,-0.709579 3.194677,-0.420588 1.078532,0.288992 1.998089,0.994593 2.556378,1.961578 0,0 0,0 0,0" />
    <path
       d="m 100.6633,82.56961 c 0.55829,-0.966987 1.47784,-1.672588 2.55638,-1.96158 1.07853,-0.288992 2.22769,-0.137701 3.19468,0.42059 2.01364,1.162577 2.70356,3.737408 1.54099,5.75105 -1.16258,2.01364 -3.73741,2.703564 -5.75105,1.54099 -2.01365,-1.162574 -2.703576,-3.737406 -1.541,-5.75105 0,0 0,0 0,0" />
    <path
       d="m 107.28607,57.853121 c 0,-1.116579 0.44356,-2.187427 1.2331,-2.976967 0.78954,-0.78954 1.86039,-1.233099 2.97697,-1.233097 2.32515,2e-6 4.21006,1.884911 4.21006,4.210064 0,2.325153 -1.88491,4.210063 -4.21006,4.210065 -1.11658,2e-6 -2.18743,-0.443557 -2.97697,-1.233098 -0.78954,-0.78954 -1.2331,-1.860387 -1.2331,-2.976967 0,0 0,0 0,0" />
    <path
       d="m 100.66333,33.136633 c -0.55829,-0.966985 -0.709584,-2.116145 -0.42059,-3.194678 0.28899,-1.078532 0.99459,-1.998089 1.96158,-2.556378 0.96698,-0.558291 2.11614,-0.709581 3.19468,-0.420589 1.07853,0.288991 1.99809,0.994593 2.55638,1.96158 0.55829,0.966985 0.70958,2.116145 0.42058,3.194677 -0.28899,1.078532 -0.99459,1.998089 -1.96157,2.556378 -0.96699,0.558291 -2.11615,0.709582 -3.19468,0.42059 -1.07854,-0.288992 -1.99809,-0.994593 -2.55638,-1.96158 0,0 0,0 0,0" />
    <path
       d="M 82.569596,15.042899 C 81.60261,14.48461 80.89701,13.565053 80.608018,12.486521 c -0.288992,-1.078533 -0.137702,-2.227693 0.420588,-3.194678 0.55829,-0.9669865 1.477847,-1.6725878 2.55638,-1.9615793 1.078534,-0.2889916 2.227694,-0.1377007 3.19468,0.4205903 2.013642,1.1625773 2.703567,3.737412 1.54099,5.751054 -0.558289,0.966987 -1.477847,1.672589 -2.55638,1.96158 -1.078533,0.288992 -2.227694,0.137702 -3.19468,-0.420589 0,0 0,0 0,0" />
    <path
       d="m 57.853096,8.420129 c -2.325153,-2.4e-6 -4.21006,-1.8849121 -4.21006,-4.210065 0,-2.3251525 1.884907,-4.2100616252 4.21006,-4.210064 1.116579,-1.5117e-6 2.187427,0.44355685 2.976969,1.2330972 0.789541,0.7895403 1.233101,1.8603874 1.233101,2.9769668 0,1.1165796 -0.44356,2.187427 -1.233101,2.9769675 -0.789542,0.7895405 -1.860389,1.233099 -2.976969,1.2330975 0,0 0,0 0,0" />
    <path
       d="m 33.136611,15.042896 c -0.966985,0.558289 -2.116145,0.709579 -3.194677,0.420587 -1.078532,-0.288992 -1.998089,-0.994593 -2.556378,-1.961578 -0.558289,-0.966985 -0.709579,-2.116145 -0.420587,-3.194677 0.288992,-1.0785323 0.994593,-1.9980888 1.961578,-2.556378 0.966985,-0.5582893 2.116145,-0.7095792 3.194677,-0.4205875 1.078532,0.2889917 1.998089,0.9945922 2.556378,1.9615775 0.55829,0.966985 0.709579,2.116145 0.420588,3.194678 -0.288992,1.078532 -0.994593,1.998089 -1.961579,2.556378 0,0 0,0 0,0" />
    <path
       d="m 15.042881,33.136618 c -1.162577,2.013642 -3.737412,2.703567 -5.751054,1.54099 -2.0136428,-1.162577 -2.7035684,-3.737411 -1.540992,-5.751054 0.5582892,-0.966985 1.4778457,-1.672586 2.556378,-1.961578 1.078532,-0.288992 2.227692,-0.137702 3.194677,0.420587 0.966985,0.558289 1.672586,1.477846 1.961578,2.556378 0.288992,1.078532 0.137702,2.227692 -0.420587,3.194677 0,0 0,0 0,0" />
    <path
       d="M 8.420128,57.853116 C 8.4201278,60.17827 6.5352181,62.06318 4.210064,62.06318 1.8849099,62.06318 1.6249999e-7,60.17827 0,57.853116 c -1.838e-7,-1.116579 0.44355877,-2.187425 1.2330989,-2.976965 0.7895402,-0.789541 1.8603866,-1.2331 2.9769651,-1.2331 1.1165785,0 2.1874249,0.443559 2.9769651,1.2331 0.7895401,0.78954 1.2330991,1.860386 1.2330989,2.976965 0,0 0,0 0,0" />
    <path
       d="m 91.015446,31.870343 c 0,0 -21.82097,21.820991 -21.82097,21.820991 -1.93757,1.937549 -5.07901,1.937558 -7.01658,-2e-6 -1.93757,-1.937582 -1.93757,-5.079023 -10e-6,-7.01659 0,0 21.80606,-21.80605 21.80606,-21.80605 -16.740477,-13.188738 -40.696155,-11.787323 -55.784613,3.263417 -7.895266,7.895164 -12.330789,18.603365 -12.33079,29.768884 -1e-6,11.16552 4.435521,21.873722 12.330785,29.768887 16.440949,16.44042 43.096529,16.44012 59.537108,-6.7e-4 15.063804,-15.086334 16.472134,-39.05202 3.27901,-55.798867 0,0 0,0 0,0" />
  </symbol>
</svg>
