<?xml version="1.0" encoding="UTF-8" standalone="no"?>
<svg
   xmlns:svg="http://www.w3.org/2000/svg"
   xmlns="http://www.w3.org/2000/svg"
   width="202.90201mm"
   height="80mm"
   viewBox="0 0 202.90201 80"
   version="1.1">
  <g
     transform="translate(-13.856,-15.354)">
    <path
       style="fill:#000000;stroke:none"
       d="m 31.242905,90.353991 v -20 H 13.856 c 0.188988,3.296767 0.805675,6.866467 2.244929,9.396523 1.117997,1.965319 3.024064,3.396781 5.148535,4.141524 4.418684,1.54899 7.457893,3.312037 9.993441,6.461953 z m 0,-24.99999 v -20 H 13.856 c 0.188988,3.296767 0.805675,6.866467 2.244929,9.396523 1.117997,1.965319 3.024064,3.396781 5.148535,4.141524 4.418684,1.54899 7.457893,3.312037 9.993441,6.461953 z m 0,-24.999835 v -20 H 13.856 c 0.188988,3.296767 0.805675,6.866467 2.244929,9.396523 1.117997,1.965319 3.024064,3.396781 5.148535,4.141524 4.418684,1.54899 7.457893,3.312037 9.993441,6.461953 z M 36.242558,15.354 h 25 c 1.385,0 2.5,1.115 2.5,2.5 v 75 c 0,1.385 -1.115,2.5 -2.5,2.5 h -25 c -1.385,0 -2.5,-1.115 -2.5,-2.5 v -75 c 0,-1.385 1.115,-2.5 2.5,-2.5 z" />
    <circle
       style="fill:#d40000;stoke:none"
       cx="48.742558"
       cy="30.354166"
       r="10" />
    <circle
       r="10"
       cy="55.354"
       cx="48.742558"
       style="fill:#ffcc00;stroke:none" />
    <circle
       style="fill:#2ca02c;stroke:none"
       cx="48.742558"
       cy="80.353996"
       r="10" />
    <text
       xml:space="preserve"
       style="font-size:27.92921448px;line-height:1.25;font-family:Helvetica;letter-spacing:0px;word-spacing:0px;fill:#000000;stroke:none"
       x="64.183769"
       y="40.392017">BUILD</text>
    <text
       xml:space="preserve"
       style="font-size:27.92921448px;line-height:1.25;font-family:Helvetica;letter-spacing:0px;word-spacing:0px;fill:#000000;stroke:none"
       y="65.385696"
       x="64.183769">STATUS</text>
    <text
       xml:space="preserve"
       style="font-size:27.92921448px;line-height:1.25;font-family:Helvetica;letter-spacing:0px;word-spacing:0px;fill:#000000;stroke:none"
       x="64.183769"
       y="90.402992">INDICATOR</text>
  </g>
</svg>
