<?xml version="1.0" encoding="UTF-8" standalone="no"?>
<svg
   xmlns:svg="http://www.w3.org/2000/svg"
   xmlns="http://www.w3.org/2000/svg"
   version="1.1">
  <symbol
     id="indicator"
     viewBox="0 0 59.739861 100">
    <path
       d="M29.8699306146 0.0C16.0170633001 -1.2025818e-05 0.0 10.4412252107 0.0 29.8699306146C0.0 49.2986325826 16.0165284375 52.3328564144 16.0165284375 74.1211830729C16.0165284375 74.1211830729 16.0188190695 74.1211830729 16.0188190695 74.1211830729C16.0188190695 74.1211830729 44.02308375 69.1797710207 44.02308375 69.1797710207C46.2147283788 51.7366850769 59.7398612293 47.7247656777 59.7398612293 29.8699306146C59.7398612293 10.4412252107 43.7227944933 -1.2025818e-05 29.8699306146 0.0C29.8699306146 0.0 29.8699306146 0.0 29.8699306146 0.0M29.8699306146 7.46021276035C31.3020898615 7.46021161504 32.7646034184 7.60452028572 34.2230259064 7.88970626035C16.4750992201 14.4656113746 10.3454172367 26.6261609129 9.2743749793 41.2537451668C7.77183720953 38.3413394355 6.7108359375 35.023810238 6.7108359375 30.6193074375C6.7108359375 15.5550267912 19.1289429926 7.46020359782 29.8699306146 7.46021276035C29.8699306146 7.46021276035 29.8699306146 7.46021276035 29.8699306146 7.46021276035" />
    <path
       d="M18.7939140109 82.5065958418C17.089107709 82.8074818082 15.4631701574 81.669381299 15.1622807551 79.964578433C14.8613890622 78.259775567 15.9994872807 76.6338391607 17.7042935827 76.3329417412C19.4090987393 76.0320557748 39.2414375533 72.5317410156 40.9462438552 72.2308435961C42.6510501572 71.9299576298 44.2769877087 73.068058139 44.577877111 74.772861005C44.878768804 76.477663871 43.7406705854 78.1036002772 42.0358642835 78.4044976967C42.0358642835 78.4044976967 18.7939140109 82.5065958418 18.7939140109 82.5065958418" />
    <path
       d="M18.7939140109 91.381088321C17.089107709 91.6819742873 15.4631701574 90.5438737781 15.1622807551 88.8390709121C14.8613890622 87.1342680461 15.9994872807 85.5083316399 17.7042935827 85.2074342204C19.4090987393 84.906548254 39.2414375533 81.4062334948 40.9462438552 81.1053360753C42.6510501572 80.8044501089 44.2769877087 81.9425506181 44.577877111 83.6473534841C44.878768804 85.3521563501 43.7406705854 86.9780927564 42.0358642835 87.2789901759C42.0358642835 87.2789901759 18.7939140109 91.381088321 18.7939140109 91.381088321" />
    <path
       d="M35.0202643396 91.0256509535C31.0877645878 91.7197239027 28.5605629868 92.1655725152 24.3822005399 92.9030300344C24.2905981662 93.3144263963 24.2437639043 93.7345248691 24.2425212365 94.1559942852C24.2426151524 97.3835130983 26.8590139635 99.9999107641 30.0865327766 100.000003535C33.3140515896 99.9999107641 35.9304504008 97.3835130983 35.9305443167 94.1559942852C35.9301801062 93.0473272519 35.6144691695 91.9616341122 35.0202643396 91.0256509535C35.0202643396 91.0256509535 35.0202643396 91.0256509535 35.0202643396 91.0256509535" />
  </symbol>
</svg>
