<?xml version="1.0" encoding="UTF-8" standalone="no"?>
<svg
   xmlns:svg="http://www.w3.org/2000/svg"
   xmlns="http://www.w3.org/2000/svg"
   version="1.1">
  <symbol
     id="lightbulb"
     viewBox="0 0 72.160637 107.31215">
    <g transform="translate(-31.199551,-39.803679)">
    <path
       id="path30"
       transform="scale(0.26458333)"
       d="m 254.28516,188.23438 c -45.71428,-4e-5 -98.57032,34.45584 -98.57032,98.57031 0,64.11446 52.85743,74.13006 52.85743,146.03125 h 0.002 l 92.41601,-16.31055 c 7.2324,-57.56195 51.86719,-70.79998 51.86719,-129.7207 0,-64.11447 -52.85799,-98.57035 -98.57226,-98.57031 z"
       style="fill:#000000;stroke:none;stroke-width:0.99999994px;stroke-linecap:butt;stroke-linejoin:miter;stroke-opacity:1" />
    <path
       id="circle847"
       d="m 57.608921,121.84196 c -1.488503,0.26271 -2.908144,-0.73099 -3.170857,-2.21949 -0.262715,-1.4885 0.730983,-2.90814 2.219486,-3.17086 1.488502,-0.26271 18.804543,-3.31891 20.293046,-3.58163 1.488503,-0.26271 2.908144,0.73099 3.170857,2.21949 0.262715,1.4885 -0.730983,2.90814 -2.219486,3.17086 z"
       style="fill:#000000;fill-opacity:1;stroke:none;stroke-width:0.22538579;stroke-opacity:1" />
    <path
       style="fill:#000000;fill-opacity:1;stroke:none;stroke-width:0.22538579;stroke-opacity:1"
       d="m 57.608921,129.59047 c -1.488503,0.26271 -2.908144,-0.73099 -3.170857,-2.21949 -0.262715,-1.4885 0.730983,-2.90814 2.219486,-3.17086 1.488502,-0.26271 18.804543,-3.31891 20.293046,-3.58163 1.488503,-0.26271 2.908144,0.73099 3.170857,2.21949 0.262715,1.4885 -0.730983,2.90814 -2.219486,3.17086 z"
       id="path853" />
    <path
       id="path855"
       d="m 71.776496,129.28013 c -3.43355,0.60601 -5.640104,0.99529 -9.288322,1.63918 a 5.1026787,5.1026787 0 0 0 -0.121957,1.09399 5.1026787,5.1026787 0 0 0 5.102532,5.10253 5.1026787,5.1026787 0 0 0 5.102532,-5.10253 5.1026787,5.1026787 0 0 0 -0.794785,-2.73317 z"
       style="fill:#000000;fill-opacity:1;stroke:none;stroke-width:0.26458332;stroke-opacity:1" />
    <path
       style="fill:#ffffff;stroke:none;stroke-width:0.20514785px;stroke-linecap:butt;stroke-linejoin:miter;stroke-opacity:1"
       d="m 71.080004,56.691399 c -1.27338,-0.249002 -2.549883,-0.374669 -3.800332,-0.374668 -9.378187,-8e-6 -20.22149,7.068542 -20.22149,20.221489 0,3.845666 0.92698,6.742581 2.238878,9.285465 0.93515,-12.771658 6.286848,-23.390722 21.782944,-29.132286 z"
       id="path892" />
    </g>
  </symbol>
</svg>
