<?xml version="1.0" encoding="UTF-8" standalone="no"?>
<svg
   xmlns:svg="http://www.w3.org/2000/svg"
   xmlns="http://www.w3.org/2000/svg"
   version="1.1">
  <symbol
     id="pipeline"
     viewBox="0 0 67.531387 100">
    <path
       d="m 6.971736,99.999999 c 0,0 0,-3.41765 0,-3.41765 20.913347,0 37.867027,-16.95368 37.867027,-37.867023 0,0 3.417646,0 3.417646,0 0,0 0,-6.972113 0,-6.972113 0,0 -28.981434,0 -28.981434,0 0,0 0,6.972113 0,6.972113 0,0 3.417652,0 3.417652,0 0,8.68243 -7.038457,15.720893 -15.720891,15.720893 0,0 0,-3.41766 0,-3.41766 0,0 -6.971736,0 -6.971736,0 0,0 0,28.98144 0,28.98144 0,0 6.971736,0 6.971736,0" />
    <path
       d="m 60.559649,0 c 0,0 0,3.417649 0,3.417649 -20.913348,0 -37.867024,16.953676 -37.867024,37.867024 0,0 -3.41765,0 -3.41765,0 0,0 0,6.972111 0,6.972111 0,0 28.981434,0 28.981434,0 0,0 0,-6.972111 0,-6.972111 0,0 -3.417653,0 -3.417653,0 0,-8.682435 7.038458,-15.720891 15.720893,-15.720891 0,0 0,3.417651 0,3.417651 0,0 6.971736,0 6.971736,0 0,0 0,-28.981433 0,-28.981433 0,0 -6.971736,0 -6.971736,0" />
  </symbol>
</svg>
